<?xml version="1.0" encoding="utf-8"?>
<!-- Generator: Adobe Illustrator 23.1.1, SVG Export Plug-In . SVG Version: 6.00 Build 0)  -->
<svg version="1.1" id="Layer_1" xmlns="http://www.w3.org/2000/svg" xmlns:xlink="http://www.w3.org/1999/xlink" x="0px" y="0px"
	 viewBox="0 0 1210.8 251.7" style="enable-background:new 0 0 1210.8 251.7;" xml:space="preserve">
<style type="text/css">
	.st0{fill:#C7D8E0;}
	.st1{fill:#C22928;}
	.st2{fill:#BD3735;}
	.st3{fill:#BD4C4C;}
	.st4{fill:#EFD0D0;}
	.st5{fill:#A6539B;}
	.st6{fill:#FFFFFF;}
	.st7{fill:#6A8684;}
</style>
<g>
	<g>
		<circle class="st0" cx="143.2" cy="125.9" r="125.9"/>
	</g>
	<g>
		<path class="st1" d="M71.8,73.4c-0.3-2.2-1.3-4.1-3.1-5.4l0,0l0,0c-1.5-1.2-3.4-1.7-5.5-1.6c-2,0.2-3.9,1.1-5.3,2.6v0.1V69
			c-0.8-1.9-2.2-3.4-4.1-4.3c-1.8-0.9-3.9-1-5.7-0.4l0,0l0,0c-2.1,0.6-3.8,2-4.8,4c-1.4,2.6-1.5,6.1-0.3,9.4c0.6,2,1.8,4,3.5,6
			c1.8,2.2,4.3,4.4,7.4,6.7c0,0,0,0,0.1,0h0.1c0.1,0,0.1-0.1,0.1-0.1c0,0.1,0,0.1,0.1,0.2h0.1h0.1c3.7-1,6.8-2.2,9.3-3.6
			c2.3-1.3,4.1-2.8,5.4-4.4C71,79.6,72.1,76.3,71.8,73.4z"/>
	</g>
	<g>
		<path class="st1" d="M36.6,58.2c-1.4-1.8-3.2-2.8-5.4-3l0,0l0,0c-1.9-0.2-3.9,0.3-5.5,1.5c-1.7,1.2-2.8,3-3.2,5v0.1
			c0,0,0-0.1-0.1-0.1c-1.6-1.2-3.7-1.8-5.7-1.6s-3.8,1.1-5.1,2.5l0,0l0,0c-1.5,1.6-2.2,3.6-2.1,5.9c0.2,2.9,1.9,6,4.5,8.2
			c1.6,1.4,3.6,2.5,6.1,3.4c2.7,0.9,6,1.6,9.8,1.9H30c0,0,0.1,0,0.1-0.1s0-0.1,0-0.2c0,0.1,0.1,0.1,0.1,0.1h0.1h0.1
			c2.6-2.8,4.7-5.4,6.1-7.9c1.3-2.3,2.1-4.5,2.3-6.5C39.2,63.9,38.4,60.5,36.6,58.2z"/>
	</g>
	<g>
		<path class="st2" d="M44.2,33.5c-0.8-1.4-2-2.3-3.5-2.7l0,0l0,0c-1.3-0.4-2.7-0.2-4,0.5s-2.3,1.8-2.8,3.1v0.1c0,0,0,0,0-0.1
			c-1-1-2.4-1.6-3.8-1.7c-1.4-0.1-2.8,0.4-3.8,1.3l0,0l0,0c-1.2,1-1.9,2.3-2.1,3.9c-0.2,2.1,0.7,4.4,2.3,6.2c1,1.1,2.3,2.1,3.9,3
			c1.8,0.9,4,1.7,6.6,2.3c0,0,0,0,0.1,0c0,0,0,0,0.1,0v-0.1c0,0,0,0.1,0.1,0.1c0,0,0,0,0.1,0c0,0,0,0,0.1,0c2.1-1.7,3.8-3.3,5-4.9
			c1.1-1.5,1.9-2.9,2.3-4.3C45.4,37.7,45.2,35.3,44.2,33.5z"/>
	</g>
	<g>
		<path class="st3" d="M11.7,33.6c-1.2-0.4-2.4-0.3-3.5,0.3l0,0l0,0c-1,0.5-1.7,1.3-2.1,2.4c-0.4,1.1-0.4,2.3,0.1,3.3l0,0
			c0,0,0,0-0.1,0c-1.1,0-2.3,0.3-3.1,1.1c-0.9,0.7-1.4,1.7-1.6,2.8l0,0l0,0c-0.1,1.3,0.2,2.5,1,3.5c1,1.3,2.8,2.2,4.7,2.4
			c1.2,0.1,2.5,0,3.9-0.4c1.5-0.4,3.3-1.2,5.1-2.2l0,0c0,0,0,0,0-0.1v-0.1h0.1l0,0l0,0c0.3-2.1,0.4-4,0.3-5.6
			c-0.1-1.5-0.5-2.7-1-3.8C14.7,35.5,13.3,34.1,11.7,33.6z"/>
	</g>
	<g>
		<path class="st4" d="M16.4,18.5c0.1-1.2-0.2-2.4-1-3.3l0,0l0,0c-0.7-0.8-1.6-1.4-2.8-1.6c-1.1-0.2-2.3,0.1-3.2,0.7l0,0
			c0,0,0,0,0-0.1c-0.2-1.1-0.8-2.1-1.7-2.9c-0.9-0.7-2-1.1-3-1l0,0l0,0c-1.2,0-2.3,0.6-3.1,1.5C0.4,13.2-0.2,15,0,17
			c0.1,1.2,0.5,2.4,1.1,3.7c0.7,1.4,1.8,3,3.1,4.6l0,0c0,0,0,0,0.1,0c0,0,0.1,0,0.1-0.1v0.1l0,0l0,0c2.1-0.1,4-0.3,5.5-0.8
			c1.4-0.4,2.6-1,3.5-1.7C15.1,21.8,16.2,20.2,16.4,18.5z"/>
	</g>
	<g>
		<g>
			<path class="st5" d="M61.7,85.1L61.7,85.1c-2.1,18.4,14.1,32.7,26.6,34.9c0.1,0,0.1,0,0.2,0c0.5,0,1-0.4,1.1-0.9
				c0.1-0.6-0.3-1.2-0.9-1.3c-6.2-1.1-12.8-5.2-17.7-10.9c-5.5-6.4-8-14.1-7.2-21.5c0.1-0.6,0.2-1.1,0.3-1.7
				c0.1-0.2,0.2-0.4,0.1-0.7c1.9-9,7.2-15.8,15-19.3c7.3-3.3,16-3,22.4,0.7c-1.2,1.7-2.1,3.8-2.6,6.5c-1.2,6.4,0.1,12.4,3.9,17.6
				c3.2,4.4,7.9,7.9,13.3,9.8c8,2.9,15.2,1.5,17.9-3.4c0.3-0.5,0.1-1.2-0.4-1.5s-1.2-0.1-1.5,0.4c-2.2,3.9-8.3,4.9-15.3,2.4
				C107.4,93,98.8,84,101.2,71.5c0.5-2.6,1.4-4.6,2.6-6.1c0.2-0.1,0.3-0.2,0.4-0.4c0-0.1,0.1-0.1,0.1-0.2c0.9-0.9,1.9-1.5,3.1-1.9
				c6.6-2.2,16.8,3.3,23.5,9.3l0,0c9.2,7.4,9.2,17.9,9.2,30v0.9c0,6.1-2.4,11.1-6.5,13.7c-4.2,2.7-9.9,2.7-16-0.1
				c-5.3-2.4-8.1-8.1-8.1-8.1c-0.2-0.5-0.8-0.7-1.3-0.6c-4.2,1.5-12.5-0.9-18.3-6.9c-2.9-3-7.2-9.2-3.9-17.6
				c0.2-0.6-0.1-1.2-0.6-1.4c-0.6-0.2-1.2,0.1-1.4,0.6c-2.8,7-1.2,14.1,4.4,19.9c5.5,5.7,14.1,9,19.6,7.7c1,1.8,3.9,6.1,8.7,8.3
				c3.4,1.5,6.7,2.3,9.8,2.3c3.1,0,5.9-0.8,8.3-2.4c1.2-0.8,2.2-1.7,3.1-2.7c2.3,4.8,2.8,9.7,1.4,14c-1.3,4-4.2,7.2-8.4,9.3
				c-5.4,2.6-12.7,2.5-18.5-0.4c-4.1-2-6.8-5.1-7.5-8.6c-0.1-0.4-0.4-0.7-0.7-0.8c-0.4-0.1-0.8,0-1.1,0.2c-4.1,3.8-9.7,5.2-15.5,3.9
				c-5.7-1.3-10.5-5.1-12.2-9.7c-0.2-0.6-0.8-0.8-1.4-0.6c-0.6,0.2-0.8,0.8-0.6,1.4c2,5.2,7.3,9.6,13.7,11.1
				c5.9,1.4,11.7,0.2,16.1-3.3c1.3,3.5,4.2,6.4,8.2,8.4c3.3,1.6,7.1,2.4,10.7,2.4c3.4,0,6.7-0.7,9.6-2.1c2.3-1.1,4.3-2.6,5.9-4.3
				c1.9,1.7,3,5,3.2,9c0.2,4.6-1,8.8-3.1,11.1c-2.4-3.4-6.2-6-10.3-7.6c-10.7-4-24.6-1.5-30.3,11.2c-0.2,0.5,0,1.2,0.5,1.4
				s1.2,0,1.4-0.5c5.2-11.5,17.8-13.7,27.6-10c7.1,2.7,13.3,8.9,10.9,16.6c-0.1,0.4,0,0.8,0.2,1c2.7,3,2.5,9.4-1.9,14.1
				c-2.5-2.4-5.3-4-7.6-5.2c-0.5-0.3-1.2-0.1-1.5,0.5c-0.3,0.5-0.1,1.2,0.5,1.5c3.6,1.8,14.7,7.4,11.6,22.2l0,0
				c-0.5,2.7-3,3.8-7.4,3.1c-5.6-0.8-13.5-4.5-20.1-9.3c-6.4-4.6-10.2-9.4-10.3-12.7c3.5-0.3,6.8-1.5,9.7-3.4c5-3.5,8.3-9,9.3-15.7
				c0.1-0.6-0.3-1.1-0.9-1.2c-0.6-0.1-1.1,0.3-1.2,0.9c-0.8,6.1-3.8,11.1-8.3,14.2c-4.4,3-9.9,3.9-15.6,2.6
				c-3.4-0.9-8.9-3.5-13.2-8.3c-3.1-3.5-6.5-9.1-5.3-16.5c0.3,0,0.7,0,1,0c1.6,0,3.1-0.3,4.6-0.8c10.4-4.2,9.5-14.4,9.5-14.5
				c-0.1-0.6-0.6-1-1.2-1c-0.6,0.1-1,0.6-1,1.2c0,0.4,0.8,8.7-8.1,12.3c-4.7,1.7-10.4,0-15.4-4.7c-7.2-6.7-12.8-19.4-9.6-30.4
				c0.1-0.3,0-0.7-0.2-1c-4-5.1-4.9-12.2-2.5-19.5C54.7,91.8,58.2,87.1,61.7,85.1z"/>
		</g>
		<g>
			<path class="st6" d="M53.3,117.8c-4.1-5.7-5-13.3-2.5-21.1c2.2-6.8,6.9-12.5,11.4-14.3c2.1-9.4,7.9-16.8,16.2-20.6
				c8.1-3.6,17.7-3.2,24.7,1.1c1-0.9,2.2-1.7,3.6-2.1c7.5-2.5,18.3,3.1,25.6,9.7c10,8.1,10,19.5,10,31.6v0.9c0,4.2-1,7.9-2.9,10.9
				c3,5.6,3.7,11.5,2,16.6c-0.5,1.7-1.3,3.2-2.3,4.6c2.3,2.1,3.8,5.9,4,10.6c0.2,5.5-1.4,10.5-4.1,13.1c1.4,2.7,1.8,5.8,0.9,9.3
				c3,4,2.7,11.3-2.4,16.7c0.1,0.1,0.2,0.2,0.3,0.3c3.7,4.7,4.9,10.6,3.5,17.5c-0.4,2-1.8,5.1-7.2,5.1c-0.8,0-1.7-0.1-2.6-0.2
				c-11.7-1.7-31.9-14.8-32.3-24.1c-1.8,0-3.6-0.2-5.5-0.7c-8.4-2.1-22.6-12.2-20.2-27.3c-3.4-0.7-6.8-2.6-10-5.6
				C56,142.8,50.1,129.6,53.3,117.8z"/>
		</g>
	</g>
	<g>
		<path class="st7" d="M53.3,117.8c-3.2,11.8,2.7,25,10.3,32.1c3.2,3,6.6,4.9,10,5.6c-2.4,15.1,11.8,25.2,20.2,27.3
			c1.8,0.4,3.7,0.7,5.5,0.7c0.3,9.3,20.6,22.4,32.3,24.1c1,0.1,1.8,0.2,2.6,0.2c5.4,0,6.8-3.1,7.2-5.1c1.4-6.9,0.3-12.7-3.5-17.5
			c-0.1-0.1-0.2-0.2-0.3-0.3c5.1-5.5,5.4-12.8,2.4-16.7c0.9-3.4,0.4-6.5-0.9-9.3c2.7-2.6,4.3-7.6,4.1-13.1c-0.2-4.6-1.6-8.5-4-10.6
			c1-1.4,1.8-2.9,2.3-4.6c1.7-5.2,0.9-11-2-16.6c1.9-3,2.9-6.7,2.9-10.9v-0.9c0-12.1,0-23.6-10-31.6c-7.4-6.7-18.1-12.2-25.6-9.7
			c-1.4,0.5-2.6,1.2-3.6,2.1c-7-4.2-16.6-4.7-24.7-1.1C70.1,65.6,64.3,73,62.2,82.5c-4.6,1.7-9.2,7.4-11.4,14.3
			C48.2,104.5,49.1,112.1,53.3,117.8z M55.5,117.9c0.1-0.3,0-0.7-0.2-1c-4-5.1-4.9-12.2-2.5-19.5c1.8-5.6,5.3-10.3,8.9-12.3v0.1
			c-2.1,18.3,14.1,32.6,26.6,34.8c0.1,0,0.1,0,0.2,0c0.5,0,1-0.4,1.1-0.9c0.1-0.6-0.3-1.2-0.9-1.3c-6.2-1.1-12.8-5.2-17.7-10.9
			c-5.5-6.4-8-14.1-7.2-21.5c0.1-0.6,0.2-1.1,0.3-1.7c0.1-0.2,0.2-0.4,0.1-0.7c1.9-9,7.2-15.8,15-19.3c7.3-3.3,16-3,22.4,0.7
			c-1.2,1.7-2.1,3.8-2.6,6.5c-1.2,6.4,0.1,12.4,3.9,17.6c3.2,4.4,7.9,7.9,13.3,9.8c8,2.9,15.2,1.5,17.9-3.4c0.3-0.5,0.1-1.2-0.4-1.5
			s-1.2-0.1-1.5,0.4c-2.2,3.9-8.3,4.9-15.3,2.4C107.4,93,98.8,84,101.2,71.5c0.5-2.6,1.4-4.6,2.6-6.1c0.2-0.1,0.3-0.2,0.4-0.4
			c0-0.1,0.1-0.1,0.1-0.2c0.9-0.9,1.9-1.5,3.1-1.9c6.6-2.2,16.8,3.3,23.5,9.3l0,0c9.2,7.4,9.2,17.9,9.2,30v0.9
			c0,6.1-2.4,11.1-6.5,13.7c-4.2,2.7-9.9,2.7-16-0.1c-5.3-2.4-8.1-8.1-8.1-8.1c-0.2-0.5-0.8-0.7-1.3-0.6c-4.2,1.5-12.5-0.9-18.3-6.9
			c-2.9-3-7.2-9.2-3.9-17.6c0.2-0.6-0.1-1.2-0.6-1.4c-0.6-0.2-1.2,0.1-1.4,0.6c-2.8,7-1.2,14.1,4.4,19.9c5.5,5.7,14.1,9,19.6,7.7
			c1,1.8,3.9,6.1,8.7,8.3c3.4,1.5,6.7,2.3,9.8,2.3c3.1,0,5.9-0.8,8.3-2.4c1.2-0.8,2.2-1.7,3.1-2.7c2.3,4.8,2.8,9.7,1.4,14
			c-1.3,4-4.2,7.2-8.4,9.3c-5.4,2.6-12.7,2.5-18.5-0.4c-4.1-2-6.8-5.1-7.5-8.6c-0.1-0.4-0.4-0.7-0.7-0.8c-0.4-0.1-0.8,0-1.1,0.2
			c-4.1,3.8-9.7,5.2-15.5,3.9c-5.7-1.3-10.5-5.1-12.2-9.7c-0.2-0.6-0.8-0.8-1.4-0.6c-0.6,0.2-0.8,0.8-0.6,1.4
			c2,5.2,7.3,9.6,13.7,11.1c5.9,1.4,11.7,0.2,16.1-3.3c1.3,3.5,4.2,6.4,8.2,8.4c3.3,1.6,7.1,2.4,10.7,2.4c3.4,0,6.7-0.7,9.6-2.1
			c2.3-1.1,4.3-2.6,5.9-4.3c1.9,1.7,3,5,3.2,9c0.2,4.6-1,8.8-3.1,11.1c-2.4-3.4-6.2-6-10.3-7.6c-10.7-4-24.6-1.5-30.3,11.2
			c-0.2,0.5,0,1.2,0.5,1.4s1.2,0,1.4-0.5c5.2-11.5,17.8-13.7,27.6-10c7.1,2.7,13.3,8.9,10.9,16.6c-0.1,0.4,0,0.8,0.2,1
			c2.7,3,2.5,9.4-1.9,14.1c-2.5-2.4-5.3-4-7.6-5.2c-0.5-0.3-1.2-0.1-1.5,0.5c-0.3,0.5-0.1,1.2,0.5,1.5c3.6,1.8,14.7,7.4,11.6,22.2
			l0,0c-0.5,2.7-3,3.8-7.4,3.1c-5.6-0.8-13.5-4.5-20.1-9.3c-6.4-4.6-10.2-9.4-10.3-12.7c3.5-0.3,6.8-1.5,9.7-3.4
			c5-3.5,8.3-9,9.3-15.7c0.1-0.6-0.3-1.1-0.9-1.2c-0.6-0.1-1.1,0.3-1.2,0.9c-0.8,6.1-3.8,11.1-8.3,14.2c-4.4,3-9.9,3.9-15.6,2.6
			c-3.4-0.9-8.9-3.5-13.2-8.3c-3.1-3.5-6.5-9.1-5.3-16.5c0.3,0,0.7,0,1,0c1.6,0,3.1-0.3,4.6-0.8c10.4-4.2,9.5-14.4,9.5-14.5
			c-0.1-0.6-0.6-1-1.2-1c-0.6,0.1-1,0.6-1,1.2c0,0.4,0.8,8.7-8.1,12.3c-4.7,1.7-10.4,0-15.4-4.7C57.9,141.6,52.3,129,55.5,117.9z"/>
	</g>
	<g>
		<path class="st1" d="M148.6,208.4c-0.3-0.2-0.5-0.6-0.5-1V80c0-0.2,0.1-0.4,0.2-0.6c6.6-10.2,16.8-17.6,28.6-20.9
			c11.7-3.2,23.7-2,33.8,3.4l0.1,0.1h0.1c11.8,5.8,20.1,15.6,24,28.3c5.2,16.8,2.2,37.5-7.9,55.3c-5.8,11-14.9,21.6-26.8,31.6
			c-13,10.9-30,21.4-50.5,31.2c-0.2,0.1-0.3,0.1-0.5,0.1C149,208.6,148.8,208.5,148.6,208.4z"/>
	</g>
	<g>
		<path class="st6" d="M232,97.7c-1.9-5.9-6-10.9-10-12.4c-1.8-8.2-6.9-14.7-14.1-17.9c-7.1-3.2-15.4-2.8-21.6,0.9
			c-0.9-0.8-2-1.4-3.2-1.8c-6.6-2.2-16,2.7-22.4,8.5c-8.7,7-8.7,17-8.7,27.6v0.8c0,3.7,0.9,6.9,2.5,9.5c-2.6,4.9-3.2,10-1.8,14.5
			c0.5,1.4,1.1,2.8,2,4c-2,1.8-3.3,5.2-3.5,9.2c-0.2,4.8,1.2,9.2,3.6,11.4c-1.2,2.4-1.6,5.1-0.8,8.1c-2.6,3.5-2.4,9.8,2.1,14.6
			c-0.1,0.1-0.2,0.2-0.2,0.3c-3.3,4.1-4.3,9.3-3,15.2c0.3,1.8,1.6,4.5,6.3,4.5c0.7,0,1.5-0.1,2.3-0.2c10.2-1.5,27.9-12.9,28.2-21
			c1.6,0,3.2-0.2,4.8-0.6c7.3-1.8,19.7-10.6,17.6-23.8c2.9-0.6,5.9-2.3,8.7-4.9c6.6-6.2,11.8-17.7,9-28
			C233.4,111.2,234.2,104.5,232,97.7z M219.5,142.7c-4.4,4.1-9.4,5.6-13.5,4.1c-7.7-3.1-7.1-10.4-7.1-10.7c0.1-0.5-0.3-1-0.8-1
			c-0.5-0.1-1,0.3-1,0.8c0,0.1-0.8,9,8.3,12.7c1.3,0.5,2.6,0.7,4,0.7c0.3,0,0.6,0,0.9,0c1,6.5-1.9,11.4-4.6,14.4
			c-3.8,4.2-8.6,6.5-11.5,7.3c-5,1.2-9.8,0.4-13.6-2.2c-4-2.7-6.5-7.1-7.3-12.4c-0.1-0.5-0.6-0.9-1.1-0.8c-0.5,0.1-0.9,0.6-0.8,1.1
			c0.8,5.8,3.7,10.7,8.1,13.7c2.5,1.7,5.4,2.7,8.4,3c-0.1,2.9-3.5,7-9,11.1c-5.8,4.2-12.6,7.4-17.5,8.1c-3.8,0.6-6-0.3-6.4-2.7l0,0
			c-2.7-12.9,6.9-17.8,10.1-19.4c0.5-0.2,0.7-0.8,0.4-1.3c-0.2-0.5-0.8-0.7-1.3-0.4c-2,1-4.4,2.4-6.6,4.5c-3.8-4.1-3.9-9.7-1.6-12.3
			c0.2-0.2,0.3-0.6,0.2-0.9c-2.1-6.8,3.3-12.2,9.5-14.5c8.5-3.2,19.6-1.2,24.1,8.7c0.2,0.5,0.8,0.7,1.3,0.5s0.7-0.8,0.5-1.3
			c-5-11.1-17.1-13.3-26.5-9.7c-3.6,1.4-6.9,3.6-9,6.6c-1.8-2-2.8-5.7-2.7-9.7c0.1-3.5,1.2-6.3,2.8-7.8c1.4,1.5,3.1,2.8,5.1,3.7
			c2.5,1.2,5.4,1.8,8.4,1.8c3.2,0,6.5-0.7,9.4-2.1c3.6-1.7,6-4.3,7.2-7.4c3.9,3,8.9,4.1,14.1,2.9c5.6-1.3,10.3-5.1,12-9.6
			c0.2-0.5-0.1-1-0.6-1.2s-1,0.1-1.2,0.6c-1.5,4-5.7,7.3-10.6,8.5c-5,1.2-10-0.1-13.5-3.4c-0.2-0.2-0.6-0.3-0.9-0.2
			c-0.3,0.1-0.6,0.4-0.6,0.7c-0.7,3.1-3,5.8-6.6,7.5c-5,2.5-11.4,2.6-16.1,0.3c-3.7-1.8-6.2-4.6-7.4-8.1c-1.2-3.8-0.8-8.1,1.2-12.2
			c0.8,0.9,1.7,1.7,2.7,2.4c2.1,1.4,4.6,2.1,7.3,2.1s5.5-0.7,8.5-2c4.2-1.9,6.7-5.7,7.6-7.3c4.9,1.1,12.3-1.7,17.1-6.7
			c4.9-5.1,6.2-11.2,3.8-17.3c-0.2-0.5-0.7-0.7-1.2-0.5s-0.7,0.7-0.5,1.2c2.9,7.3-0.9,12.7-3.4,15.3c-5,5.2-12.3,7.3-15.9,6
			c-0.5-0.2-1,0-1.2,0.5c0,0-2.4,4.9-7.1,7.1c-5.4,2.4-10.3,2.4-14,0.1c-3.6-2.3-5.6-6.7-5.6-12v-0.8c0-10.6,0-19.7,8-26.1l0,0
			c5.8-5.3,14.7-10.1,20.5-8.1c1,0.3,1.9,0.9,2.7,1.7c0,0.1,0.1,0.1,0.1,0.2c0.1,0.1,0.2,0.2,0.4,0.3c1.1,1.3,1.9,3.1,2.3,5.4
			c2.1,10.9-5.4,18.8-13.8,21.8c-6.1,2.2-11.4,1.3-13.3-2.1c-0.3-0.5-0.8-0.6-1.3-0.4c-0.5,0.3-0.6,0.8-0.4,1.3
			c2.4,4.3,8.6,5.5,15.6,3c4.7-1.7,8.8-4.7,11.6-8.5c3.3-4.5,4.4-9.8,3.4-15.4c-0.4-2.3-1.2-4.2-2.3-5.6c5.6-3.2,13.1-3.5,19.5-0.6
			c6.8,3.1,11.4,9,13.1,16.8c0,0.2,0,0.4,0.1,0.6c0.1,0.5,0.2,1,0.2,1.5c0.7,6.5-1.5,13.2-6.2,18.8c-4.2,5-10,8.5-15.4,9.5
			c-0.5,0.1-0.9,0.6-0.8,1.1c0.1,0.5,0.5,0.8,0.9,0.8c0.1,0,0.1,0,0.2,0c10.9-1.9,25.1-14.4,23.2-30.4v-0.1
			c3.1,1.7,6.1,5.9,7.7,10.7c2.1,6.3,1.3,12.5-2.2,17c-0.2,0.2-0.2,0.6-0.2,0.8C230.7,125.8,225.8,136.9,219.5,142.7z"/>
	</g>
</g>
<g>
	<path class="st7" d="M320,65.4c7.8,0,14.2,2.3,19.3,6.8c5,4.5,7.5,10.4,7.5,17.7c0,7.2-2.5,13.1-7.5,17.7s-11.4,6.8-19.3,6.8h-17.2
		v-49C302.8,65.4,320,65.4,320,65.4z M314.7,105.3h5.3c4.6,0,8.1-1.4,10.7-4.2c2.6-2.8,3.9-6.5,3.9-11.2s-1.3-8.4-3.9-11.2
		c-2.6-2.8-6.2-4.2-10.7-4.2h-5.3V105.3z"/>
	<path class="st7" d="M370.1,114.9c-5.7,0-10.3-1.8-14-5.5c-3.6-3.7-5.4-8.5-5.4-14.5s1.8-10.9,5.4-14.4c3.6-3.6,8.3-5.4,14-5.4
		s10.5,1.8,14.2,5.3c3.8,3.5,5.7,8.4,5.7,14.7c0,1.4-0.1,2.6-0.3,3.8h-26.8c0.2,1.7,1,3.1,2.3,4.2s2.7,1.6,4.2,1.6s2.6-0.2,3.4-0.5
		c0.7-0.3,1.3-0.6,1.6-0.9c0.3-0.3,0.8-0.8,1.4-1.5h12.9c-1.1,3.9-3.3,7.1-6.7,9.5C378.7,113.7,374.7,114.9,370.1,114.9z
		 M375.2,86.9c-1.4-1.1-3-1.7-5-1.7c-1.9,0-3.5,0.6-4.8,1.7s-2.1,2.6-2.4,4.4h14.6C377.4,89.6,376.6,88.1,375.2,86.9z"/>
	<path class="st7" d="M408.1,75.5v5.7c2.5-4.1,6.4-6.1,11.8-6.1c2.9,0,5.5,0.7,7.7,2c2.3,1.3,4,3.2,5.3,5.6c1.4-2.3,3.3-4.1,5.6-5.5
		c2.3-1.4,4.9-2.1,7.7-2.1c4.7,0,8.5,1.5,11.3,4.4s4.2,7,4.2,12.2v22.7h-11.9V93.3c0-2.5-0.7-4.5-2-5.8c-1.3-1.4-3.2-2.1-5.5-2.1
		s-4.2,0.7-5.5,2.1s-2,3.3-2,5.8v21.1H423V93.3c0-2.5-0.7-4.5-2-5.8c-1.3-1.4-3.2-2.1-5.5-2.1s-4.2,0.7-5.5,2.1s-2,3.3-2,5.8v21.1
		h-11.9V75.5H408.1z"/>
	<path class="st7" d="M486.9,114.9c-5.7,0-10.3-1.8-14-5.5c-3.6-3.7-5.4-8.5-5.4-14.5s1.8-10.9,5.4-14.4c3.6-3.6,8.3-5.4,14-5.4
		s10.5,1.8,14.2,5.3c3.8,3.5,5.7,8.4,5.7,14.7c0,1.4-0.1,2.6-0.3,3.8h-26.8c0.2,1.7,1,3.1,2.3,4.2s2.7,1.6,4.2,1.6s2.6-0.2,3.4-0.5
		c0.7-0.3,1.3-0.6,1.6-0.9c0.3-0.3,0.8-0.8,1.4-1.5h12.9c-1.1,3.9-3.3,7.1-6.7,9.5C495.5,113.7,491.6,114.9,486.9,114.9z M492,86.9
		c-1.4-1.1-3-1.7-5-1.7c-1.9,0-3.5,0.6-4.8,1.7s-2.1,2.6-2.4,4.4h14.6C494.2,89.6,493.4,88.1,492,86.9z"/>
	<path class="st7" d="M524.9,75.5v5.7c2.5-4.1,6.4-6.1,11.8-6.1c4.5,0,8.1,1.5,10.9,4.5c2.8,3,4.2,7,4.2,12.1v22.7h-11.9V93.3
		c0-2.5-0.7-4.5-2-5.8c-1.3-1.4-3.2-2.1-5.5-2.1s-4.2,0.7-5.5,2.1s-2,3.3-2,5.8v21.1H513V75.5H524.9z"/>
	<path class="st7" d="M557.9,87.2c0-3.4,1.5-6.3,4.4-8.7c2.9-2.3,6.9-3.5,11.9-3.5s9,1.1,12.1,3.4s4.7,5.4,4.9,9.4H579
		c-0.1-1.3-0.6-2.3-1.4-2.8c-0.8-0.5-2-0.7-3.6-0.7c-3.1,0-4.7,1-4.7,2.9c0,1.7,1.9,2.9,5.7,3.6c3.9,0.7,7.4,1.7,10.5,3
		c1.6,0.7,3,1.7,4.1,3.2s1.6,3.4,1.6,5.5c0,3.6-1.6,6.6-4.7,8.9c-3.1,2.3-7,3.5-11.8,3.5s-8.7-1.1-11.9-3.2
		c-3.2-2.2-4.9-5.4-5.2-9.6H570c0.3,2.4,2,3.6,5,3.6c1.4,0,2.5-0.3,3.5-1c0.9-0.7,1.4-1.5,1.4-2.5s-0.8-1.8-2.3-2.4
		s-3.3-1.1-5.5-1.5c-2.1-0.4-4.3-0.9-6.5-1.6s-4-1.7-5.5-3.3C558.6,91.7,557.9,89.7,557.9,87.2z"/>
	<path class="st7" d="M615.4,75.5v9.9h-5v29h-11.9v-29h-3.6v-9.9h3.6V74c0-4.9,1.3-8.5,3.9-10.8c2.6-2.3,6.8-3.4,12.4-3.4v10.1
		c-1.6,0-2.7,0.3-3.4,0.9s-1,1.7-1,3.2v1.5H615.4z"/>
	<path class="st7" d="M658.8,75.5v5.1c3.2-3.7,7.3-5.5,12.5-5.5s9.5,1.8,13,5.5s5.3,8.5,5.3,14.5c0,1.4-0.1,2.6-0.3,3.8h-28
		c0.5,2.1,1.5,3.6,3,4.5s3.1,1.4,4.7,1.4c3,0,5.1-1,6.3-2.9h12.9c-1.1,3.9-3.2,7.1-6.1,9.5c-3,2.4-6.4,3.6-10.4,3.6
		c-2.7,0-5.3-0.6-7.7-1.7s-4.2-2.6-5.3-4.5v5.7h-11.9v-5.7c-2.9,4.1-6.7,6.1-11.6,6.1c-4.8,0-9-1.9-12.4-5.6s-5.2-8.5-5.2-14.3
		s1.7-10.6,5.2-14.3c3.4-3.7,7.6-5.6,12.6-5.6s8.8,1.8,11.4,5.5v-5.1H658.8z M632.4,102.1c1.7,1.7,3.7,2.5,5.9,2.5s4.2-0.8,5.9-2.5
		s2.6-4,2.6-7.1s-0.9-5.4-2.6-7.1c-1.7-1.7-3.7-2.5-5.9-2.5s-4.2,0.8-5.9,2.5s-2.6,4-2.6,7.1C629.9,98.1,630.7,100.4,632.4,102.1z
		 M674.9,86.9c-1.4-1.1-3.1-1.7-5.2-1.7c-2.1,0-3.9,0.6-5.5,1.7s-2.6,2.6-2.9,4.4h16C677.1,89.5,676.3,88,674.9,86.9z"/>
	<path class="st7" d="M695.8,114.4V62.8h11.9v51.6C707.7,114.4,695.8,114.4,695.8,114.4z"/>
	<path class="st7" d="M716.4,114.4V62.8h11.9v51.6C728.3,114.4,716.4,114.4,716.4,114.4z"/>
	<path class="st7" d="M754.1,114.9c-5.7,0-10.3-1.8-14-5.5c-3.6-3.7-5.4-8.5-5.4-14.5s1.8-10.9,5.4-14.4c3.6-3.6,8.3-5.4,14-5.4
		s10.5,1.8,14.2,5.3c3.8,3.5,5.7,8.4,5.7,14.7c0,1.4-0.1,2.6-0.3,3.8h-26.8c0.2,1.7,1,3.1,2.3,4.2s2.7,1.6,4.2,1.6s2.6-0.2,3.4-0.5
		c0.7-0.3,1.3-0.6,1.6-0.9s0.8-0.8,1.4-1.5h12.9c-1.1,3.9-3.3,7.1-6.7,9.5C762.7,113.7,758.7,114.9,754.1,114.9z M759.2,86.9
		c-1.4-1.1-3-1.7-5-1.7c-1.9,0-3.5,0.6-4.8,1.7s-2.1,2.6-2.4,4.4h14.6C761.4,89.6,760.6,88.1,759.2,86.9z"/>
	<path class="st7" d="M777.8,87.2c0-3.4,1.5-6.3,4.4-8.7c2.9-2.3,6.9-3.5,11.9-3.5s9,1.1,12.1,3.4s4.7,5.4,4.9,9.4h-12.2
		c-0.1-1.3-0.6-2.3-1.4-2.8c-0.8-0.5-2-0.7-3.6-0.7c-3.1,0-4.7,1-4.7,2.9c0,1.7,1.9,2.9,5.7,3.6c3.9,0.7,7.4,1.7,10.5,3
		c1.6,0.7,3,1.7,4.1,3.2s1.6,3.4,1.6,5.5c0,3.6-1.6,6.6-4.7,8.9c-3.1,2.3-7,3.5-11.8,3.5s-8.7-1.1-11.9-3.2
		c-3.2-2.2-4.9-5.4-5.2-9.6H790c0.3,2.4,2,3.6,5,3.6c1.4,0,2.5-0.3,3.5-1c0.9-0.7,1.4-1.5,1.4-2.5s-0.8-1.8-2.3-2.4
		s-3.3-1.1-5.5-1.5c-2.1-0.4-4.3-0.9-6.5-1.6s-4-1.7-5.5-3.3C778.6,91.7,777.8,89.7,777.8,87.2z"/>
	<path class="st7" d="M815.8,87.2c0-3.4,1.5-6.3,4.4-8.7c2.9-2.3,6.9-3.5,11.9-3.5s9,1.1,12.1,3.4s4.7,5.4,4.9,9.4h-12.2
		c-0.1-1.3-0.6-2.3-1.4-2.8c-0.8-0.5-2-0.7-3.6-0.7c-3.1,0-4.7,1-4.7,2.9c0,1.7,1.9,2.9,5.7,3.6c3.9,0.7,7.4,1.7,10.5,3
		c1.6,0.7,3,1.7,4.1,3.2s1.6,3.4,1.6,5.5c0,3.6-1.6,6.6-4.7,8.9c-3.1,2.3-7,3.5-11.8,3.5s-8.7-1.1-11.9-3.2
		c-3.2-2.2-4.9-5.4-5.2-9.6h12.2c0.3,2.4,2,3.6,5,3.6c1.4,0,2.5-0.3,3.5-1c0.9-0.7,1.4-1.5,1.4-2.5s-0.8-1.8-2.3-2.4
		s-3.3-1.1-5.5-1.5c-2.1-0.4-4.3-0.9-6.5-1.6s-4-1.7-5.5-3.3C816.5,91.7,815.8,89.7,815.8,87.2z"/>
	<path class="st7" d="M867.7,114.4h-11.9V62.8h11.9v29l12.1-16.3h16l-16.7,19.9l16.7,19H880l-12.3-15.6V114.4z"/>
	<path class="st7" d="M900.3,109.3c-3.4-3.7-5.2-8.5-5.2-14.3s1.7-10.6,5.2-14.3c3.4-3.7,7.6-5.6,12.6-5.6s8.8,1.8,11.4,5.5v-5.1
		h11.9v38.9h-11.9v-5.7c-2.9,4.1-6.7,6.1-11.6,6.1C907.9,114.9,903.8,113,900.3,109.3z M921.8,102.1c1.7-1.7,2.6-4,2.6-7.1
		s-0.9-5.4-2.6-7.1c-1.7-1.7-3.7-2.5-5.9-2.5s-4.2,0.8-5.9,2.5s-2.6,4-2.6,7.1s0.9,5.4,2.6,7.1c1.7,1.7,3.7,2.5,5.9,2.5
		S920,103.7,921.8,102.1z"/>
	<path class="st7" d="M956.9,80.6c2.7-3.7,6.5-5.5,11.4-5.5c5,0,9.2,1.9,12.6,5.6c3.4,3.7,5.2,8.5,5.2,14.3s-1.7,10.6-5.2,14.3
		c-3.4,3.7-7.6,5.6-12.5,5.6s-8.7-2-11.5-6.1v5.7H945V62.8h11.9V80.6z M971.3,102.1c1.7-1.7,2.6-4,2.6-7.1s-0.9-5.4-2.6-7.1
		c-1.7-1.7-3.7-2.5-5.9-2.5s-4.2,0.8-5.9,2.5s-2.6,4-2.6,7.1s0.9,5.4,2.6,7.1c1.7,1.7,3.7,2.5,5.9,2.5S969.6,103.7,971.3,102.1z"/>
	<path class="st7" d="M1009.2,114.9c-5.7,0-10.3-1.8-14-5.5c-3.6-3.7-5.4-8.5-5.4-14.5s1.8-10.9,5.4-14.4c3.6-3.6,8.3-5.4,14-5.4
		s10.5,1.8,14.2,5.3c3.8,3.5,5.7,8.4,5.7,14.7c0,1.4-0.1,2.6-0.3,3.8H1002c0.2,1.7,1,3.1,2.3,4.2s2.7,1.6,4.2,1.6s2.6-0.2,3.4-0.5
		c0.7-0.3,1.3-0.6,1.6-0.9s0.8-0.8,1.4-1.5h12.9c-1.1,3.9-3.3,7.1-6.7,9.5C1017.7,113.7,1013.8,114.9,1009.2,114.9z M1014.3,86.9
		c-1.4-1.1-3-1.7-5-1.7c-1.9,0-3.5,0.6-4.8,1.7s-2.1,2.6-2.4,4.4h14.6C1016.4,89.6,1015.7,88.1,1014.3,86.9z"/>
	<path class="st7" d="M1051.4,104.3h4.3v10.1h-6.1c-4.4,0-7.8-1-10.2-2.9c-2.4-1.9-3.6-5.2-3.6-9.9V85.4h-3.6v-9.9h3.6V66h11.9v9.5
		h7.8v9.9h-7.8v16.2C1047.8,103.4,1049,104.3,1051.4,104.3z"/>
	<path class="st7" d="M1084.8,114.4v-49h31.9v9.1h-20V85h14.9v9.1h-14.9v20.3C1096.7,114.4,1084.8,114.4,1084.8,114.4z"/>
	<path class="st7" d="M1134.1,113.6L1119,75.5h13.5l8.7,25.5l9.5-25.5h12.5l-24.8,57.5h-12.5L1134.1,113.6z"/>
	<path class="st7" d="M1179.1,75.5v5.7c2.5-4.1,6.4-6.1,11.8-6.1c4.5,0,8.1,1.5,10.9,4.5s4.2,7,4.2,12.1v22.7h-12V93.3
		c0-2.5-0.7-4.5-2-5.8c-1.3-1.4-3.2-2.1-5.5-2.1s-4.2,0.7-5.5,2.1s-2,3.3-2,5.8v21.1h-11.9V75.5H1179.1z"/>
	<path class="st7" d="M305.8,160.6v14.3h-4.5v-34.6h11.2c3.9,0,6.9,0.9,8.9,2.8c2,1.9,3.1,4.2,3.1,7s-0.7,5-2.2,6.9
		c-1.5,1.8-3.7,3-6.7,3.4l9.5,14.5h-5.7l-9.1-14.3H305.8z M305.8,143.9V157h6.7c2.5,0,4.4-0.6,5.6-1.7c1.2-1.1,1.8-2.8,1.8-4.8
		c0-4.4-2.5-6.5-7.4-6.5h-6.7V143.9z"/>
	<path class="st7" d="M334.1,171.3c-2.5-2.7-3.7-6.1-3.7-10.3s1.2-7.6,3.7-10.1c2.5-2.6,5.6-3.9,9.4-3.9c2.3,0,4.4,0.5,6.1,1.6
		s3.1,2.5,4,4.3v-5.5h4.6v27.4h-4.6v-5.6c-0.9,1.8-2.2,3.3-4,4.4c-1.7,1.1-3.8,1.7-6.1,1.7C339.7,175.3,336.6,174,334.1,171.3z
		 M350.8,168.6c1.8-1.9,2.7-4.3,2.7-7.4s-0.9-5.6-2.7-7.4c-1.8-1.9-4-2.8-6.5-2.8s-4.7,0.9-6.5,2.7s-2.7,4.2-2.7,7.3
		s0.9,5.6,2.7,7.5c1.8,1.9,4,2.9,6.5,2.9C346.8,171.4,349,170.5,350.8,168.6z M341.4,143.1c-1-0.9-1.5-2.2-1.5-3.8s0.5-2.8,1.5-3.8
		s2.2-1.4,3.7-1.4s2.7,0.5,3.7,1.4s1.5,2.2,1.5,3.8s-0.5,2.8-1.5,3.8c-1,0.9-2.2,1.4-3.7,1.4S342.4,144,341.4,143.1z M347,141.1
		c0.5-0.5,0.7-1.1,0.7-1.9c0-0.8-0.2-1.4-0.7-1.9s-1.1-0.7-1.9-0.7c-0.7,0-1.4,0.2-1.9,0.7s-0.7,1.1-0.7,1.9c0,0.8,0.2,1.4,0.7,1.9
		s1.1,0.7,1.9,0.7C345.8,141.9,346.5,141.6,347,141.1z"/>
	<path class="st7" d="M367.5,171.3c-2.5-2.7-3.7-6.1-3.7-10.3s1.2-7.6,3.7-10.1c2.5-2.6,5.6-3.9,9.4-3.9c2.3,0,4.4,0.5,6.1,1.6
		s3.1,2.5,4,4.3v-15h4.6v37H387v-5.6c-0.9,1.8-2.2,3.3-4,4.4c-1.7,1.1-3.8,1.7-6.1,1.7C373.1,175.3,370,174,367.5,171.3z
		 M384.2,168.6c1.8-1.9,2.7-4.3,2.7-7.4s-0.9-5.6-2.7-7.4c-1.8-1.9-4-2.8-6.5-2.8s-4.7,0.9-6.5,2.7s-2.7,4.2-2.7,7.3
		s0.9,5.6,2.7,7.5c1.8,1.9,4,2.9,6.5,2.9C380.3,171.4,382.4,170.5,384.2,168.6z"/>
	<path class="st7" d="M401,171.3c-2.5-2.7-3.7-6.1-3.7-10.3s1.2-7.6,3.7-10.1c2.5-2.6,5.6-3.9,9.4-3.9c2.3,0,4.4,0.5,6.1,1.6
		s3.1,2.5,4,4.3v-5.5h4.6v28.1c0,3.8-1.2,6.8-3.6,9.2s-5.5,3.6-9.2,3.6s-6.8-0.9-9.3-2.6c-2.4-1.7-3.8-4-4.2-6.8h4.4
		c0.4,1.6,1.4,2.9,3,3.9s3.6,1.5,5.9,1.5c2.4,0,4.3-0.8,5.9-2.3s2.4-3.7,2.4-6.5v-6.3c-0.9,1.8-2.2,3.3-4,4.4
		c-1.7,1.1-3.8,1.7-6.1,1.7C406.6,175.3,403.5,174,401,171.3z M417.7,168.6c1.8-1.9,2.7-4.3,2.7-7.4s-0.9-5.6-2.7-7.4
		c-1.8-1.9-4-2.8-6.5-2.8s-4.7,0.9-6.5,2.7s-2.7,4.2-2.7,7.3s0.9,5.6,2.7,7.5c1.8,1.9,4,2.9,6.5,2.9
		C413.7,171.4,415.9,170.5,417.7,168.6z"/>
	<path class="st7" d="M437,142.1c-0.6,0.6-1.3,0.9-2.2,0.9c-0.9,0-1.6-0.3-2.2-0.9c-0.6-0.6-0.9-1.3-0.9-2.2s0.3-1.6,0.9-2.2
		c0.6-0.6,1.3-0.9,2.2-0.9s1.6,0.3,2.2,0.9c0.6,0.6,0.9,1.3,0.9,2.2S437.6,141.5,437,142.1z M432.5,174.9v-27.4h4.5v27.4H432.5z"/>
	<path class="st7" d="M441.4,147.4h4.8l8.4,23.2l8.4-23.2h4.9l-10.7,27.4h-5.1L441.4,147.4z"/>
	<path class="st7" d="M476.9,147.4v4.4c1.9-3.3,4.8-4.9,8.9-4.9c3,0,5.6,1,7.6,3s3,4.9,3,8.6v16.2H492v-15.5c0-2.8-0.7-4.9-2-6.3
		c-1.3-1.4-3.2-2.1-5.5-2.1s-4.2,0.7-5.5,2.1c-1.3,1.4-2,3.5-2,6.3v15.5h-4.5v-27.4L476.9,147.4L476.9,147.4z"/>
	<path class="st7" d="M508.2,142.1c-0.6,0.6-1.3,0.9-2.2,0.9c-0.9,0-1.6-0.3-2.2-0.9c-0.6-0.6-0.9-1.3-0.9-2.2s0.3-1.6,0.9-2.2
		c0.6-0.6,1.3-0.9,2.2-0.9s1.6,0.3,2.2,0.9c0.6,0.6,0.9,1.3,0.9,2.2S508.8,141.5,508.2,142.1z M503.7,174.9v-27.4h4.5v27.4H503.7z"
		/>
	<path class="st7" d="M520.3,147.4v4.4c1.9-3.3,4.8-4.9,8.9-4.9c3,0,5.6,1,7.6,3s3,4.9,3,8.6v16.2h-4.5v-15.5c0-2.8-0.7-4.9-2-6.3
		c-1.3-1.4-3.2-2.1-5.5-2.1s-4.2,0.7-5.5,2.1c-1.3,1.4-2,3.5-2,6.3v15.5h-4.5v-27.4L520.3,147.4L520.3,147.4z"/>
	<path class="st7" d="M549,171.3c-2.5-2.7-3.7-6.1-3.7-10.3s1.2-7.6,3.7-10.1c2.5-2.6,5.6-3.9,9.4-3.9c2.3,0,4.4,0.5,6.1,1.6
		s3.1,2.5,4,4.3v-5.5h4.6v28.1c0,3.8-1.2,6.8-3.6,9.2c-2.4,2.4-5.5,3.6-9.2,3.6s-6.8-0.9-9.3-2.6s-3.8-4-4.2-6.8h4.4
		c0.4,1.6,1.4,2.9,3,3.9s3.6,1.5,5.9,1.5c2.4,0,4.3-0.8,5.9-2.3c1.6-1.5,2.4-3.7,2.4-6.5v-6.3c-0.9,1.8-2.2,3.3-4,4.4
		c-1.7,1.1-3.8,1.7-6.1,1.7C554.7,175.3,551.5,174,549,171.3z M565.8,168.6c1.8-1.9,2.7-4.3,2.7-7.4s-0.9-5.6-2.7-7.4
		c-1.8-1.9-4-2.8-6.5-2.8s-4.7,0.9-6.5,2.7s-2.7,4.2-2.7,7.3s0.9,5.6,2.7,7.5s4,2.9,6.5,2.9C561.8,171.4,563.9,170.5,565.8,168.6z"
		/>
	<path class="st7" d="M581.5,158.5v-3.9h19.9v3.9H581.5z"/>
	<path class="st7" d="M626.8,171.4c-2.5-2.6-3.8-6-3.8-10.2s1.3-7.7,3.9-10.3c2.6-2.6,5.9-3.9,9.9-3.9s7.3,1.3,9.9,3.9
		c2.6,2.6,3.9,6,3.9,10.2s-1.4,7.6-4.1,10.2c-2.7,2.6-6.1,3.9-10.1,3.9S629.4,174,626.8,171.4z M636.6,171.6c2.6,0,4.8-0.9,6.7-2.8
		c1.9-1.8,2.8-4.4,2.8-7.7s-0.9-5.8-2.7-7.6s-4-2.7-6.6-2.7s-4.7,0.9-6.5,2.7c-1.7,1.8-2.6,4.4-2.6,7.7s0.8,5.8,2.5,7.7
		C631.9,170.6,634,171.6,636.6,171.6z"/>
	<path class="st7" d="M658.4,171.3c-2.5-2.7-3.7-6.1-3.7-10.3s1.2-7.6,3.7-10.1c2.5-2.6,5.6-3.9,9.4-3.9c2.3,0,4.4,0.5,6.1,1.6
		s3.1,2.5,4,4.3v-5.5h4.6v28.1c0,3.8-1.2,6.8-3.6,9.2c-2.4,2.4-5.5,3.6-9.2,3.6s-6.8-0.9-9.3-2.6s-3.8-4-4.2-6.8h4.4
		c0.4,1.6,1.4,2.9,3,3.9s3.6,1.5,5.9,1.5c2.4,0,4.3-0.8,5.9-2.3c1.6-1.5,2.4-3.7,2.4-6.5v-6.3c-0.9,1.8-2.2,3.3-4,4.4
		c-1.7,1.1-3.8,1.7-6.1,1.7C664,175.3,660.9,174,658.4,171.3z M675.1,168.6c1.8-1.9,2.7-4.3,2.7-7.4s-0.9-5.6-2.7-7.4
		c-1.8-1.9-4-2.8-6.5-2.8s-4.7,0.9-6.5,2.7s-2.7,4.2-2.7,7.3s0.9,5.6,2.7,7.5s4,2.9,6.5,2.9C671.1,171.4,673.3,170.5,675.1,168.6z"
		/>
	<path class="st7" d="M706.8,171.3c-2.5-2.7-3.7-6.1-3.7-10.3s1.2-7.6,3.7-10.1c2.5-2.6,5.6-3.9,9.4-3.9c2.3,0,4.4,0.5,6.1,1.6
		s3.1,2.5,4,4.3v-5.5h4.6v27.4h-4.6v-5.6c-0.9,1.8-2.2,3.3-4,4.4c-1.7,1.1-3.8,1.7-6.1,1.7C712.4,175.3,709.3,174,706.8,171.3z
		 M723.5,168.6c1.8-1.9,2.7-4.3,2.7-7.4s-0.9-5.6-2.7-7.4c-1.8-1.9-4-2.8-6.5-2.8s-4.7,0.9-6.5,2.7s-2.7,4.2-2.7,7.3
		s0.9,5.6,2.7,7.5s4,2.9,6.5,2.9C719.5,171.4,721.7,170.5,723.5,168.6z"/>
	<path class="st7" d="M742.9,174.9h-4.5v-37h4.5v21.7l10.5-12.1h6.4l-12.9,13.6l12.9,13.8h-6.1l-10.7-12v12H742.9z"/>
	<path class="st7" d="M773,171.2h3.7v3.7h-4.6c-4.8,0-7.1-2.3-7.1-7v-16.7h-3.5v-3.7h3.5v-6.8h4.6v6.8h7.1v3.7h-7.1v16.7
		c0,1.2,0.2,2.1,0.7,2.6C770.8,170.9,771.7,171.2,773,171.2z"/>
	<path class="st7" d="M786.2,142.1c-0.6,0.6-1.3,0.9-2.2,0.9s-1.6-0.3-2.2-0.9c-0.6-0.6-0.9-1.3-0.9-2.2s0.3-1.6,0.9-2.2
		c0.6-0.6,1.3-0.9,2.2-0.9c0.8,0,1.6,0.3,2.2,0.9c0.6,0.6,0.9,1.3,0.9,2.2C787.1,140.8,786.8,141.5,786.2,142.1z M781.7,174.9v-27.4
		h4.5v27.4H781.7z"/>
	<path class="st7" d="M790.6,147.4h4.8l8.4,23.2l8.4-23.2h4.9l-10.7,27.4h-5.1L790.6,147.4z"/>
	<path class="st7" d="M826,142.1c-0.6,0.6-1.3,0.9-2.2,0.9s-1.6-0.3-2.2-0.9c-0.6-0.6-0.9-1.3-0.9-2.2s0.3-1.6,0.9-2.2
		c0.6-0.6,1.3-0.9,2.2-0.9c0.8,0,1.6,0.3,2.2,0.9c0.6,0.6,0.9,1.3,0.9,2.2S826.6,141.5,826,142.1z M821.5,174.9v-27.4h4.5v27.4
		H821.5z"/>
	<path class="st7" d="M842.5,171.2h3.7v3.7h-4.6c-4.8,0-7.1-2.3-7.1-7v-16.7H831v-3.7h3.5v-6.8h4.6v6.8h7.1v3.7h-7.1v16.7
		c0,1.2,0.2,2.1,0.7,2.6C840.4,170.9,841.3,171.2,842.5,171.2z"/>
	<path class="st7" d="M862.8,175.3c-3.9,0-7.1-1.3-9.6-3.9c-2.5-2.6-3.7-6-3.7-10.3s1.2-7.7,3.7-10.3s5.7-3.9,9.7-3.9
		s7.2,1.2,9.6,3.7c2.4,2.4,3.6,5.6,3.6,9.4c0,1-0.1,1.9-0.2,2.7h-21.8c0.1,2.7,1,4.9,2.6,6.5s3.6,2.4,6.1,2.4c1.9,0,3.4-0.4,4.7-1.2
		s2.2-1.9,2.8-3.3h4.9c-0.9,2.4-2.4,4.4-4.5,5.9C868.6,174.5,866,175.3,862.8,175.3z M868.9,153.1c-1.6-1.6-3.7-2.4-6.1-2.4
		c-2.4,0-4.4,0.8-6,2.3s-2.5,3.7-2.6,6.4h17.2C871.4,156.8,870.5,154.7,868.9,153.1z"/>
	<path class="st7" d="M890.8,171.2h3.7v3.7h-4.6c-4.8,0-7.1-2.3-7.1-7v-16.7h-3.5v-3.7h3.5v-6.8h4.6v6.8h7.1v3.7h-7.1v16.7
		c0,1.2,0.2,2.1,0.7,2.6C888.6,170.9,889.5,171.2,890.8,171.2z"/>
	<path class="st7" d="M898.5,155.2c0-2.3,1-4.2,2.9-5.8s4.4-2.4,7.4-2.4s5.4,0.8,7.2,2.3c1.7,1.5,2.7,3.7,2.8,6.4h-4.7
		c-0.1-1.5-0.6-2.8-1.5-3.7c-1-0.9-2.3-1.4-4-1.4s-3.1,0.4-4,1.2c-1,0.8-1.5,1.9-1.5,3.1c0,1.3,0.6,2.3,1.7,3c1.1,0.7,2.5,1.2,4,1.5
		c1.6,0.3,3.2,0.7,4.7,1.1c1.6,0.4,2.9,1.2,4,2.3s1.7,2.8,1.7,4.9s-1,3.9-2.9,5.3c-1.9,1.4-4.4,2.2-7.5,2.2s-5.5-0.8-7.4-2.3
		c-1.8-1.5-2.9-3.6-3-6.3h4.7c0.1,1.5,0.6,2.8,1.6,3.7s2.4,1.4,4.2,1.4s3.2-0.4,4.2-1.1c1-0.8,1.5-1.7,1.5-2.9s-0.4-2.1-1.2-2.8
		s-1.8-1.2-3-1.4c-1.2-0.3-2.5-0.6-3.9-0.9c-1.4-0.4-2.7-0.8-3.9-1.2s-2.2-1.1-3-2.2C898.9,158,898.5,156.7,898.5,155.2z"/>
	<path class="st7" d="M927.7,171.4c-2.5-2.6-3.7-6-3.7-10.3c0-4.2,1.2-7.7,3.7-10.3s5.7-3.9,9.6-3.9c3.3,0,6,0.8,8.1,2.3
		s3.5,3.7,4.4,6.5h-4.9c-0.5-1.6-1.4-2.8-2.7-3.7s-2.9-1.3-4.8-1.3c-2.6,0-4.7,0.9-6.3,2.7s-2.4,4.4-2.4,7.7s0.8,5.9,2.4,7.7
		c1.6,1.8,3.7,2.7,6.3,2.7c3.9,0,6.4-1.7,7.5-5.1h4.9c-0.8,2.7-2.3,4.8-4.4,6.4c-2.1,1.6-4.8,2.4-8,2.4
		C933.4,175.3,930.2,174,927.7,171.4z"/>
	<path class="st7" d="M967.3,175.3c-3.9,0-7.1-1.3-9.6-3.9c-2.5-2.6-3.7-6-3.7-10.3s1.2-7.7,3.7-10.3s5.7-3.9,9.7-3.9
		s7.2,1.2,9.6,3.7c2.4,2.4,3.6,5.6,3.6,9.4c0,1-0.1,1.9-0.2,2.7h-21.8c0.1,2.7,1,4.9,2.6,6.5s3.6,2.4,6.1,2.4c1.9,0,3.4-0.4,4.7-1.2
		s2.2-1.9,2.8-3.3h4.9c-0.9,2.4-2.4,4.4-4.5,5.9C973.1,174.5,970.5,175.3,967.3,175.3z M973.4,153.1c-1.6-1.6-3.7-2.4-6.1-2.4
		c-2.4,0-4.4,0.8-6,2.3s-2.5,3.7-2.6,6.4h17.2C975.9,156.8,975,154.7,973.4,153.1z"/>
	<path class="st7" d="M990.8,147.4v4.4c1.9-3.3,4.8-4.9,8.9-4.9c3,0,5.6,1,7.6,3s3,4.9,3,8.6v16.2h-4.5v-15.5c0-2.8-0.7-4.9-2-6.3
		c-1.3-1.4-3.2-2.1-5.5-2.1s-4.2,0.7-5.5,2.1c-1.3,1.4-2,3.5-2,6.3v15.5h-4.5v-27.4L990.8,147.4L990.8,147.4z"/>
	<path class="st7" d="M1026.6,171.2h3.7v3.7h-4.6c-4.8,0-7.1-2.3-7.1-7v-16.7h-3.5v-3.7h3.5v-6.8h4.6v6.8h7.1v3.7h-7.1v16.7
		c0,1.2,0.2,2.1,0.7,2.6C1024.5,170.9,1025.4,171.2,1026.6,171.2z"/>
	<path class="st7" d="M1046.9,175.3c-3.9,0-7.1-1.3-9.6-3.9c-2.5-2.6-3.7-6-3.7-10.3s1.2-7.7,3.7-10.3s5.7-3.9,9.7-3.9
		s7.2,1.2,9.6,3.7c2.4,2.4,3.6,5.6,3.6,9.4c0,1-0.1,1.9-0.2,2.7h-21.8c0.1,2.7,1,4.9,2.6,6.5s3.6,2.4,6.1,2.4c1.9,0,3.4-0.4,4.7-1.2
		s2.2-1.9,2.8-3.3h4.9c-0.9,2.4-2.4,4.4-4.5,5.9C1052.7,174.5,1050.1,175.3,1046.9,175.3z M1053,153.1c-1.6-1.6-3.7-2.4-6.1-2.4
		s-4.4,0.8-6,2.3s-2.5,3.7-2.6,6.4h17.2C1055.5,156.8,1054.6,154.7,1053,153.1z"/>
	<path class="st7" d="M1070.4,147.4v4.6c1.6-3.4,4.4-5.1,8.3-5.1v4.7h-1.2c-2.3,0-4.1,0.6-5.3,1.8c-1.2,1.2-1.8,3.3-1.8,6.3v15h-4.5
		v-27.4L1070.4,147.4L1070.4,147.4z"/>
</g>
</svg>
